<?xml version="1.0" encoding="UTF-8"?><svg id="Layer_1" xmlns="http://www.w3.org/2000/svg" viewBox="0 0 841.89 595.28"><defs><style>.cls-1{fill:#167ab6;}.cls-2{fill:#ff6b00;}.cls-3{fill:#fb6b01;stroke:#fb6b01;stroke-miterlimit:10;stroke-width:6.53px;}</style></defs><path class="cls-1" d="M146.29,272.48v281.1h-66.77v-281.1h66.77Z"/><path class="cls-1" d="M679.71,272.48h66.77v177c0,27.25-3.58,48.75-10.75,64.48-7.17,15.74-18.89,27.12-35.17,34.14-9.34,3.94-20.63,6.32-33.87,7.16-13.25.84-28.45,1.26-45.6,1.26-18.03,0-34.36-.07-49.02-.21-14.66-.14-27.68-1.13-39.08-2.95-11.4-1.82-21.28-4.91-29.64-9.27-8.36-4.35-15.26-10.67-20.68-18.96-5.43-8.28-9.44-18.89-12.05-31.82-2.61-12.92-3.91-28.93-3.91-48.04v-172.79h66.77v147.5c0,11.8.27,21.57.81,29.29.54,7.73,1.68,14.12,3.42,19.18,1.74,5.06,4.29,8.85,7.65,11.38,3.36,2.53,7.87,4.36,13.52,5.48,5.64,1.13,12.59,1.76,20.84,1.9,8.25.14,18.24.21,29.96.21h23.12c6.73,0,12.65-.35,17.75-1.05,5.1-.7,9.44-1.96,13.03-3.79,3.58-1.82,6.56-4.7,8.96-8.64,3.69-5.62,5.81-12.64,6.35-21.07.54-8.43.81-18.96.81-31.61v-148.77Z"/><path class="cls-1" d="M202.8,553.57v-281.1h242.31v63.21h-176.85v48.89h165.12v55.63h-165.12v50.15h176.85v63.22h-242.31Z"/><path class="cls-3" d="M290.88,156.75c0-13.91,50.99-92.71,51.41-102.83.42-5.48,11.8-15.17,17.28-15.17,4.21,0,6.32,3.79,6.32,8.43,0,8.43-27.39,45.93-28.23,48.88l.42.42c4.21,0,54.78-57.73,77.96-57.73,9.27,0,14.75,1.68,14.75,16.01-.42,10.11-5.48,33.71-11.38,54.36l-.42.42c.84,0,7.16-5.06,14.75-13.06,21.49-21.07,33.71-30.34,41.72-30.34,2.95,0,5.48,1.26,7.58,3.79,10.53,11.38-8.85,58.16,28.66,58.58,16.44,0,51.41-19.39,76.27-41.72,6.74-5.9,10.96-9.27,13.07-9.27,1.26,0,1.68.84,1.68,2.53,0,5.9-51.41,58.58-93.55,58.58l-6.74-.42c-25.71-4.21-26.13-30.34-26.13-46.78v-.84c0-8.01,0-13.91-2.95-13.91-9.27,0-59,56.47-64.47,56.47-3.79,0-5.48-2.95-5.48-7.59,0-16.44,17.7-53.94,17.7-69.11,0-4.64-1.26-7.16-5.06-7.16-19.39,4.21-48.88,32.87-92.29,83.44-17.7,19.81-25.28,27.39-29.5,27.39-1.26,0-3.37-.42-3.37-3.37Z"/><path class="cls-3" d="M449.34,409.59c0-42.56,40.88-111.25,54.79-130.22,45.93-63.63,102.4-115.05,171.51-154.24,3.37-3.37,13.06-39.61,13.06-49.73,0-3.37-.84-5.48-2.95-5.48-2.95,0-8.85,4.64-18.12,15.59-39.19,44.67-64.05,61.53-77.11,61.53-8.01,0-11.8-5.9-11.8-15.17,0-27.81,34.56-85.12,45.09-85.12,2.53,0,5.48,2.53,5.48,6.32,0,5.06-3.79,11.8-10.53,18.12-7.59,7.59-32.03,46.78-32.03,62.37,0,5.06,3.37,7.16,7.59,7.16,13.06,0,40.46-25.7,85.13-79.22,5.48-6.74,10.11-8.85,13.49-8.85,5.48,0,7.58,4.21,7.58,10.53,0,12.22-5.48,34.98-10.11,50.15v.42c0,.42,0,.84.42.84h.85c26.97-15.17,53.94-28.23,78.8-35.4h1.26c1.26,0,2.11.84,2.11,1.68s-.42,2.11-2.11,2.53c-25.28,6.74-53.94,18.96-81.75,35.4-1.26.84-2.11,1.68-2.11,2.95-15.59,42.14-27.82,82.6-56.05,144.54-48.46,109.99-114.62,176.57-153.82,176.57-20.23,0-28.66-16.01-28.66-33.29ZM499.91,429.4c27.81-13.49,69.53-61.1,98.61-111.25,16.01-27.81,62.79-131.48,74.59-179.94l2.53-10.11s0-.42-.42-.42l-.42.42c-28.23,14.33-61.52,39.61-86.81,62.37-30.34,27.81-57.31,61.52-75.43,86.39-13.07,17.7-56.89,91.87-56.89,132.74,0,13.91,6.32,26.55,21.07,26.55,5.9,0,13.49-2.11,23.18-6.74Z"/><rect class="cls-1" x="466.71" y="272.48" width="65.64" height="106.15"/><path class="cls-2" d="M112.7,172.13c-5.2,0-10-1.48-14.08-4.06-1.01-.65-1.99-1.35-2.92-2.13l-38.04-38.05,81.12-81.12,81.13,81.12-45.27,45.29c.12-1.57.22-3.13.22-4.71,0-26.92-21.76-48.41-48.41-48.41-2.53,0-4.99.16-7.4.55,11.42,2.91,19.77,13.11,19.77,25.38,0,14.55-11.75,26.16-26.13,26.16ZM138.65,111.77c9.35,0,16.99-7.56,16.99-17.02s-7.64-17-16.99-17-17.02,7.58-17.02,17,7.65,17.02,17.02,17.02Z"/></svg>
